# xmcd
#
# Track frame offsets: 
#        150
#        10931
#        31002
#        46618
#        65886
#        87640
#        101640
#        120021
#        137038
#        157439
#        178217
#
# Disc length: 2561 seconds
#
# Revision: 0
# Processed by: cddbd v1.5.2PL0 Copyright (c) Steve Scherf et al.
# Submitted via: ExactAudioCopy v0.99pb3
#
DISCID=9109ff0b
DTITLE=Country Boy - Country Boy's Blues Logistics
DYEAR=2008
DGENRE=Blues
TTITLE0=Clyde Stomp
TTITLE1=CB's Experience
TTITLE2=Louise
TTITLE3=You Got Class
TTITLE4=Offical Blues
TTITLE5=CB's Shuffle
TTITLE6=The Tuck
TTITLE7=Guitar Chuck
TTITLE8=Start Me Up
TTITLE9=Smuttin'
TTITLE10=On My Mind
EXTD=
EXTT0=
EXTT1=
EXTT2=
EXTT3=
EXTT4=
EXTT5=
EXTT6=
EXTT7=
EXTT8=
EXTT9=
EXTT10=
PLAYORDER=
